<svg xmlns="http://www.w3.org/2000/svg" viewBox="0 0 160.73 197.536"><g stroke="#fbfbfb"><path d="M3.055 18.001h154.62v176.48H3.055z" fill="none" stroke-width="7" stroke-linecap="square" stroke-dashoffset="10.569" paint-order="markers stroke fill"/><path fill="none" stroke-width="7" stroke-linecap="square" stroke-dashoffset="10.569" paint-order="markers stroke fill" d="M18.793 37.05h122.492v139.81H18.793z"/><path d="M43.316 15.947L80.585 3.683l37.487 12.264v25.331H43.316z" fill="#fbfbfb" stroke-width="7" stroke-linecap="square" stroke-dashoffset="48.767" paint-order="markers stroke fill"/><path d="M32.16 56.884h93.566v-.45" fill="none" stroke-width="3.019" stroke-dasharray="6.03825481,3.01912741,1.5095637,3.01912741"/><path d="M32.16 65.351h93.566v-.45" fill="none" stroke-width="3.019" stroke-dasharray="24.15301943,12.07650971"/><path d="M32.16 73.818h93.566v-.451" fill="none" stroke-width="3.019" stroke-dasharray="18.11476457,3.01912743" stroke-dashoffset="17.511"/><path d="M32.16 82.285h93.566v-.451" fill="none" stroke-width="3.019" stroke-dasharray="12.07650971,3.01912743" stroke-dashoffset="17.511"/><path d="M32.16 90.751h93.566v-.45" fill="none" stroke-width="3.019" stroke-dasharray="6.03825486,3.01912743" stroke-dashoffset="17.511"/><path d="M32.16 106.626h93.566v-.45" fill="none" stroke-width="3.019" stroke-dasharray="24.15301943,6.03825486,3.01912743,6.03825486" stroke-dashoffset="17.511"/><path d="M32.16 116.602h93.566v-.45" fill="none" stroke-width="3.019" stroke-dasharray="18.11476477,3.01912746" stroke-dashoffset="17.511"/><path d="M32.16 125.07h93.566v-.452" fill="none" stroke-width="3.019" stroke-dasharray="12.07650984,3.01912746" stroke-dashoffset="17.511"/><path d="M32.16 133.536h93.566v-.451" fill="none" stroke-width="3.019" stroke-dasharray="6.03825493,3.01912746" stroke-dashoffset="17.511"/><path d="M32.337 147.99h93.565v-.45" fill="none" stroke-width="3.019" stroke-dasharray="24.15301943,12.07650971" stroke-dashoffset="17.511"/><path d="M32.337 156.458h93.565v-.451" fill="none" stroke-width="3.019" stroke-dasharray="9.05738229,3.01912743" stroke-dashoffset="4.831"/></g></svg>