<svg xmlns="http://www.w3.org/2000/svg" viewBox="0 0 90.783 79.036"><g class="small-cog"><animateTransform attributeName="transform" attributeType="XML" type="rotate" from="0 71.28 19.23" to="-360 71.28 19.23" dur="2s" begin="0s" repeatCount="indefinite" fill="freeze"/><path d="M83.322 17.46l1.535-.225.9.087 2.539 1.15v1.508l-2.539 1.15-.9.087-1.535-.225-.728 2.717 1.442.573.736.525 1.625 2.265-.755 1.307-2.774-.274-.823-.375-1.216-.962-1.991 1.99.962 1.216.375.823.274 2.773-1.306.756-2.265-1.625-.526-.736-.573-1.442-2.717.728.225 1.535-.087.9-1.15 2.539h-1.507l-1.15-2.539-.087-.9.225-1.535-2.717-.728-.573 1.442-.525.736-2.265 1.625-1.307-.756.274-2.773.375-.823.962-1.217-1.99-1.99-1.216.963-.823.375-2.773.274-.756-1.307 1.625-2.265.736-.525L60 23.709l-.728-2.717-1.535.225-.9-.087-2.539-1.15v-1.508l2.539-1.15.9-.087 1.535.225.728-2.717-1.442-.573-.736-.526-1.625-2.265.756-1.306 2.773.274.823.375 1.217.962 1.99-1.99-.963-1.216-.375-.823-.274-2.774 1.307-.755 2.265 1.625.525.736.573 1.442 2.717-.728-.225-1.535.087-.9 1.15-2.539h1.508l1.15 2.539.087.9-.225 1.535 2.717.728.573-1.442.526-.736 2.265-1.625 1.306.755-.274 2.774-.375.823-.962 1.216 1.99 1.991 1.216-.962.823-.375 2.774-.274.755 1.306-1.625 2.265-.736.526-1.442.573z" fill="#fbfbfb" stroke="#fbfbfb" stroke-width=".5"/><circle r="3.793" cx="71.297" cy="19.226" fill="#124070" stroke="#fbfbfb" stroke-width=".5"/></g><g class="big-cog"><animateTransform attributeName="transform" attributeType="XML" type="rotate" from="0 34.06 45.26" to="360 34.06 45.26" dur="4s" begin="0s" repeatCount="indefinite" fill="freeze"/><path d="M60.729 43.073l.67-.053 1.785.292 2.481 1.038v1.74l-2.481 1.038-1.785.292-.67-.054-.353 2.68.661.12 1.649.745 2.127 1.644-.449 1.68-2.666.362-1.8-.18-.633-.226-1.034 2.497.607.287 1.4 1.147 1.63 2.14-.87 1.505-2.668-.34-1.692-.641-.553-.38-1.644 2.142.511.436 1.055 1.47 1.021 2.488-1.23 1.23-2.489-1.02-1.469-1.056-.436-.512-2.142 1.644.381.554.64 1.692.34 2.668-1.506.87-2.14-1.63-1.145-1.4-.288-.607-2.496 1.034.225.633.18 1.8-.361 2.666-1.68.45-1.645-2.128-.745-1.649-.12-.661-2.68.353.054.67-.292 1.785-1.038 2.48h-1.74l-1.038-2.48-.292-1.786.054-.669-2.68-.353-.12.661-.745 1.649-1.644 2.127-1.68-.449-.362-2.666.18-1.8.226-.633-2.497-1.034-.287.607-1.147 1.4-2.14 1.63-1.505-.87.34-2.668.641-1.692.38-.554-2.142-1.643-.436.511-1.469 1.055-2.489 1.02-1.23-1.23 1.02-2.488 1.056-1.469.512-.436-1.644-2.142-.554.38-1.692.64-2.668.341-.87-1.506 1.63-2.14 1.4-1.146.607-.287-1.034-2.497-.633.226-1.8.18-2.666-.362-.45-1.679 2.128-1.646 1.649-.744.661-.12-.353-2.68-.67.054-1.785-.292-2.48-1.038v-1.74l2.48-1.038 1.786-.292.669.053.353-2.679-.661-.12-1.649-.745-2.127-1.644.449-1.68 2.666-.362 1.8.18.633.225 1.034-2.496-.607-.288-1.4-1.146-1.63-2.14.87-1.506 2.668.342 1.692.64.554.38 1.643-2.142-.51-.436-1.056-1.47-1.02-2.488 1.23-1.23 2.488 1.02 1.469 1.056.436.512 2.142-1.645-.38-.553-.64-1.692-.341-2.668 1.506-.87 2.14 1.63 1.146 1.4.287.607 2.497-1.034-.226-.633-.18-1.8.362-2.666 1.679-.45 1.646 2.128.744 1.649.12.661 2.68-.354-.054-.669.292-1.785 1.038-2.481h1.74l1.038 2.481.292 1.785-.053.67 2.679.353.12-.661.745-1.649 1.644-2.127 1.68.449.362 2.666-.18 1.8-.225.633 2.496 1.034.288-.607 1.146-1.4 2.14-1.63 1.506.87-.342 2.668-.64 1.692-.38.553 2.142 1.644.436-.511 1.47-1.055 2.488-1.021 1.23 1.23-1.02 2.489-1.056 1.469-.512.436 1.645 2.142.553-.381 1.692-.64 2.668-.34.87 1.506-1.63 2.14-1.4 1.145-.607.288 1.034 2.496.633-.225 1.8-.18 2.666.361.45 1.68-2.128 1.645-1.649.745-.661.12z" fill="#fbfbfb" stroke="#fbfbfb" stroke-width=".5"/><circle r="10.115" cx="34.076" cy="45.22" fill="#124070" stroke="#fbfbfb" stroke-width=".5"/></g></svg>
