<svg xmlns="http://www.w3.org/2000/svg" viewBox="0 0 62.227 62.231"><path fill="#124070" fill-opacity=".941" paint-order="markers stroke fill" d="M-.001 0h62.23v62.231H0z"/><path d="M5.05 57.728zM5.054 46.616z" fill="none" stroke="#000" stroke-width=".265"/><path d="M60.136 55.754l-57.984.031" fill="none" stroke="#e8ecef" stroke-width="9.411" stroke-dasharray="9.41138597,9.41138597" stroke-dashoffset="22.493"/><path d="M45.265 35.051q0 2.144-.928 4.205-.899 2.061-2.875 3.683-1.976 1.621-5.06 2.61-3.084.99-7.396.99-2.515 0-4.52-.33-1.977-.33-3.414-.714-1.647-.467-2.964-1.044v-9.977h3.862l.809 6.376q.06.33.359.715.33.385.659.522l.509.247q.449.193 1.227.44.779.22 1.887.412 1.137.193 2.575.193 1.946 0 3.593-.44 1.676-.467 2.874-1.32 1.198-.851 1.856-2.088.69-1.237.69-2.803 0-1.704-1.079-2.969-1.048-1.291-2.665-2.28-1.587-1.018-3.473-1.815-1.886-.797-3.563-1.539-1.886-.824-3.623-1.704-1.707-.879-3.024-2.033-1.288-1.155-2.066-2.694-.749-1.566-.749-3.71 0-2.501 1.078-4.535 1.078-2.034 2.964-3.463Q24.725 8.53 27.3 7.76q2.605-.797 5.629-.797 1.647 0 3.084.165t2.695.44q1.287.247 2.395.577 1.108.302 2.096.577l.539.165v8.767h-3.503l-.929-5.387q-.06-.384-.389-.55-.3-.192-.569-.439-.12-.082-.479-.275-.359-.22-1.018-.44-.629-.22-1.587-.384-.958-.165-2.245-.165-1.857 0-3.324.495-1.467.494-2.485 1.401-1.018.88-1.587 2.089-.539 1.21-.539 2.638 0 1.292.539 2.364.569 1.044 1.647 1.951 1.108.88 2.695 1.65 1.587.769 3.653 1.483 2.784.962 4.94 2.007 2.186 1.044 3.653 2.336 1.497 1.291 2.275 2.913.779 1.594.779 3.71z" fill="#d4aa00" stroke="none" aria-label="S" style="fill:#d4aa00;fill-opacity:1;stroke:none;stroke-width:1.46874154;stroke-opacity:0.98431373" font-weight="400" font-size="58.75" font-family="Abyssinica SIL" letter-spacing="0" word-spacing="0" stroke-width="1.469"/></svg>