<svg xmlns="http://www.w3.org/2000/svg" viewBox="0 0 145.692 63.866"><defs><marker orient="auto" refY="0" refX="0" id="a" overflow="visible"><path d="M3.92 0c0 2.208-1.792 4-4 4s-4-1.792-4-4 1.792-4 4-4 4 1.792 4 4z" fill-rule="evenodd" stroke="#aebecc" stroke-width=".8pt" fill="#aebecc"/></marker><marker orient="auto" refY="0" refX="0" id="b" overflow="visible"><path d="M-10.69-4.437L1.328-.017-10.69 4.401c1.92-2.61 1.909-6.18 0-8.84z" fill="#aebecc" fill-rule="evenodd" stroke="#aebecc" stroke-width=".6875" stroke-linejoin="round"/></marker></defs><path d="M5.334 58.515z" fill="none" stroke="#000" stroke-width=".265"/><path d="M145.685 58.287l-125.746.228" fill="none" stroke="#e8ecef" stroke-width="4.805" stroke-dasharray="28.82762343,9.60920780000000008"/><path d="M22.821 134.057L63.215 81.11h97.942" fill="none" stroke="#aebecc" stroke-width="1.165" marker-start="url(#a)" marker-end="url(#b)" paint-order="markers stroke fill" transform="translate(-17.487 -75.542)"/><path d="M5.338 47.402z" fill="none" stroke="#000" stroke-width=".265"/><path d="M145.688 47.174l-123.689.229" fill="none" stroke="#d4aa00" stroke-width="4.766" stroke-dasharray="19.06563212,9.53281606000000004,4.76640803000000002,9.53281606000000004"/><path d="M145.682 36.59l-113.818.23" fill="none" stroke="#e8ecef" stroke-width="4.575" stroke-dasharray="9.15030299,4.57515149999999959,2.28757573999999986,4.57515149999999959" stroke-dashoffset="6.302"/><text style="line-height:1.25;-inkscape-font-specification:'Abyssinica SIL'" x="73.484" y="103.831" font-weight="400" font-size="25.15" font-family="Abyssinica SIL" letter-spacing="0" word-spacing="0" stroke="#e8ecef" stroke-width=".629" transform="translate(-17.487 -75.542)"><tspan x="73.484" y="103.831" style="-inkscape-font-specification:'Abyssinica SIL'"><tspan fill="#fbfbfb">T</tspan> <tspan fill="#d4aa00" stroke="none" stroke-opacity=".984">S</tspan> <tspan fill="#fbfbfb">T</tspan></tspan></text></svg>